<svg xmlns="http://www.w3.org/2000/svg" x="0px" y="0px" width="100" height="100" viewBox="0 0 50 50">
<path d="M 24.78125 6.03125 L 24.0625 6.875 C 20.046875 11.457031 18.09375 18.789063 18.34375 26.03125 L 18.375 26.71875 L 17.46875 25.4375 C 13.789063 19.910156 8.210938 16.9375 1.1875 15.6875 L -0.125 15.4375 L 0 16.78125 C 0.378906 20.46875 1.179688 23.472656 2.4375 26.375 L 2.6875 27 L 3.34375 27 L 16.65625 26.96875 L 18.375 26.96875 L 18.375 27 L 47.125 27 L 47.375 26.40625 C 48.699219 23.527344 49.554688 20.417969 50 16.8125 L 50.15625 15.5 L 48.84375 15.71875 C 41.683594 16.804688 35.996094 19.917969 32.09375 25.40625 L 31.25 26.59375 L 31.28125 26.0625 C 31.632813 18.671875 29.621094 11.320313 25.53125 6.84375 Z M 24.8125 9.3125 C 27.703125 13.121094 29.355469 18.917969 29.25 25 L 20.375 25 C 20.347656 19.042969 21.96875 13.203125 24.8125 9.3125 Z M 2.25 18.03125 C 7.421875 19.175781 11.492188 21.347656 14.5 24.96875 L 4.0625 25 C 3.195313 22.875 2.621094 20.601563 2.25 18.03125 Z M 47.71875 18.03125 C 47.300781 20.582031 46.695313 22.894531 45.78125 25 L 35.125 25 C 38.304688 21.335938 42.457031 19.082031 47.71875 18.03125 Z M 3.5 29.5625 C 3.878906 30.386719 4.5 31.417969 5.03125 32.15625 L 44.6875 32.125 C 45.265625 31.316406 45.820313 30.484375 46.21875 29.5625 Z M 6.875 34.78125 C 7.695313 35.867188 8.414063 36.308594 9.4375 37.125 L 40.125 37.125 C 40.988281 36.453125 41.886719 35.660156 42.6875 34.78125 Z M 12.6875 39.28125 C 15.308594 40.902344 18.382813 41.964844 21.875 42.6875 L 21.46875 39.28125 Z M 22.3125 39.28125 C 22.988281 40.6875 23.859375 41.867188 24.84375 43 C 25.8125 41.847656 26.472656 40.667969 27.15625 39.28125 Z M 28.15625 39.28125 L 27.625 42.5 C 31.132813 41.855469 34.222656 40.835938 36.90625 39.28125 Z"></path>
</svg>